<svg width="1024" height="1024" viewBox="0 0 1024 1024" xmlns="http://www.w3.org/2000/svg">
  <!-- Reado mark: an open book with a turning page. Vectorised from the app
       icon; uses currentColor so it can be recoloured per site/background. -->
  <g transform="translate(0,1024) scale(0.1,-0.1)" fill="currentColor">
    <path d="M6215 6994 c-110 -30 -339 -93 -508 -139 -380 -104 -419 -124 -462 -244 -23 -66 -23 -2366 0 -2432 23 -63 58 -104 117 -133 l52 -26 659 0 c477 0 671 3 699 12 53 16 121 78 150 136 l23 47 3 1130 c2 622 0 1158 -3 1192 -13 129 -103 220 -228 232 l-62 6 -6 65 c-8 98 -38 148 -108 185 -65 33 -112 29 -326 -31z"/>
    <path d="M3505 6751 c-51 -23 -102 -74 -126 -126 -18 -38 -19 -92 -19 -1220 0 -818 3 -1192 11 -1219 15 -56 101 -138 159 -154 34 -10 204 -12 705 -10 732 3 684 -1 756 70 75 76 70 -16 76 1266 4 877 3 1160 -6 1204 -17 82 -64 146 -130 180 l-53 28 -667 0 c-623 0 -669 -2 -706 -19z"/>
  </g>
</svg>
